<?xml version="1.0" encoding="UTF-8" standalone="no"?>
<!-- Created with Inkscape (http://www.inkscape.org/) -->

<svg
   width="165.78575mm"
   height="58.894604mm"
   viewBox="0 0 165.78575 58.894604"
   version="1.1"
   id="svg1"
   xml:space="preserve"
   inkscape:version="1.3 (0e150ed, 2023-07-21)"
   sodipodi:docname="logo.svg"
   xmlns:inkscape="http://www.inkscape.org/namespaces/inkscape"
   xmlns:sodipodi="http://sodipodi.sourceforge.net/DTD/sodipodi-0.dtd"
   xmlns="http://www.w3.org/2000/svg"
   xmlns:svg="http://www.w3.org/2000/svg"><sodipodi:namedview
     id="namedview1"
     pagecolor="#ffffff"
     bordercolor="#000000"
     borderopacity="0.25"
     inkscape:showpageshadow="2"
     inkscape:pageopacity="0.0"
     inkscape:pagecheckerboard="0"
     inkscape:deskcolor="#d1d1d1"
     inkscape:document-units="mm"
     inkscape:zoom="1.1670174"
     inkscape:cx="293.4832"
     inkscape:cy="165.37885"
     inkscape:window-width="2340"
     inkscape:window-height="1310"
     inkscape:window-x="30"
     inkscape:window-y="20"
     inkscape:window-maximized="1"
     inkscape:current-layer="g1" /><defs
     id="defs1"><inkscape:path-effect
       effect="fill_between_many"
       method="originald"
       linkedpaths="#path47,0,1|#path45,0,1|#path46,0,1|#path48,0,1"
       id="path-effect49"
       is_visible="true"
       lpeversion="0"
       join="true"
       close="true"
       autoreverse="true" /><inkscape:path-effect
       effect="fill_between_many"
       method="originald"
       linkedpaths="#g15,0,1"
       id="path-effect15"
       is_visible="true"
       lpeversion="0"
       join="true"
       close="true"
       autoreverse="true" /><inkscape:path-effect
       effect="fill_between_many"
       method="originald"
       linkedpaths="#path14,0,1|#path12,0,1|#path13,0,1|#path15,0,1"
       id="path-effect16"
       is_visible="true"
       lpeversion="0"
       join="true"
       close="true"
       autoreverse="true" /></defs><g
     inkscape:label="Layer 1"
     inkscape:groupmode="layer"
     id="layer1"
     transform="translate(-15.580372,-32.254648)"><path
       inkscape:original-d="M 0,0"
       inkscape:path-effect="#path-effect15"
       d="M 0,0"
       id="path16"
       style="stroke-width:15.7968;stroke-dasharray:none"
       transform="matrix(0.16362671,0,0,0.16362671,11.222239,61.701949)" /><g
       id="g1"
       transform="translate(5.6679389,-44.01121)"><path
         inkscape:original-d="M 0,0"
         inkscape:path-effect="#path-effect49"
         d="m 36.226854,196.57127 -7.830375,37.97359 c 0,0 49.881018,-40.06388 160.521241,-40.06388 110.64023,0 160.52125,40.06388 160.52125,40.06388 l -7.9266,-37.97359 c 0,0 -47.43283,-40.06388 -152.64276,-40.06388 -105.209931,0 -152.642756,40.06388 -152.642756,40.06388 z"
         id="path44"
         style="fill:#fb2411;fill-opacity:1;stroke-width:15.7968;stroke-dasharray:none"
         transform="matrix(0.16362671,0,0,-0.16362671,10.763628,159.47686)" /><path
         style="fill:none;fill-opacity:1;stroke:#ff0000;stroke-width:15.7968;stroke-linecap:round;stroke-dasharray:none;stroke-opacity:1"
         d="m 28.396479,234.54486 c 0,0 49.881018,-40.06388 160.521241,-40.06388 110.64023,0 160.52125,40.06388 160.52125,40.06388"
         id="path45"
         sodipodi:nodetypes="czc"
         transform="matrix(0.16362671,0,0,-0.16362671,10.763628,159.47686)" /><path
         style="fill:none;fill-opacity:1;stroke:#fb2411;stroke-width:15.7968;stroke-linecap:round;stroke-dasharray:none;stroke-opacity:1"
         d="m 36.226854,196.57127 c 0,0 47.432825,-40.06388 152.642756,-40.06388 105.20993,0 152.64276,40.06388 152.64276,40.06388"
         id="path46"
         sodipodi:nodetypes="czc"
         transform="matrix(0.16362671,0,0,-0.16362671,10.763628,159.47686)" /><path
         style="fill:none;fill-opacity:1;stroke:#ff0000;stroke-width:15.7968;stroke-linecap:round;stroke-dasharray:none;stroke-opacity:1"
         d="m 36.226854,196.57127 -7.830375,37.97359"
         id="path47"
         transform="matrix(0.16362671,0,0,-0.16362671,10.763628,159.47686)" /><path
         style="fill:none;fill-opacity:1;stroke:#ff0000;stroke-width:15.7968;stroke-linecap:round;stroke-dasharray:none;stroke-opacity:1"
         d="m 341.51237,196.57127 7.9266,37.97359"
         id="path48"
         transform="matrix(0.16362671,0,0,-0.16362671,10.763628,159.47686)" /><path
         id="path33"
         style="fill:#a07d66;fill-opacity:1;stroke:#000000;stroke-width:2.58478;stroke-linecap:round;stroke-dasharray:none"
         inkscape:transform-center-x="-6.3119328"
         d="m 21.269411,77.608571 c -3.496398,-0.100726 -5.389162,2.758211 -5.389163,8.409869 0,3.515625 0.734449,5.946691 2.129666,7.260855 -1.381565,3.275813 -2.152377,7.072245 -2.152383,11.368735 0.01795,1.84884 0.180849,3.69188 0.486665,5.50603 l 0.01918,-0.0154 c 0.641914,-0.44286 1.35594,-0.86851 2.137491,-1.27421 0.781579,-0.40565 1.629,-0.79049 2.536819,-1.15204 0.907844,-0.3616 1.874156,-0.69913 2.89273,-1.01044 1.018593,-0.31131 2.087271,-0.59572 3.199169,-0.85141 1.11189,-0.25576 2.264635,-0.48224 3.45083,-0.678 1.18619,-0.19565 2.40327,-0.36016 3.643427,-0.49247 1.240167,-0.13232 2.500758,-0.23215 3.773677,-0.29887 1.272889,-0.0668 2.555406,-0.10038 3.839304,-0.10046 0.427844,7e-5 0.855629,0.004 1.283053,0.0114 0.4274,0.007 0.85434,0.0185 1.280523,0.0333 0.426212,0.0149 0.851555,0.0335 1.275731,0.0558 0.424171,0.0222 0.847076,0.0482 1.268409,0.0777 0.421377,0.0296 0.841083,0.0628 1.258816,0.0997 0.417654,0.0369 0.833233,0.0773 1.246452,0.12141 0.413249,0.0441 0.824036,0.0919 1.232058,0.14313 0.408003,0.0512 0.813148,0.10603 1.215152,0.16432 0.402068,0.0582 0.800902,0.11989 1.196215,0.18502 0.395302,0.0652 0.786985,0.13393 1.174761,0.20598 0.387677,0.0721 0.771364,0.14745 1.150782,0.22617 0.37954,0.0787 0.754728,0.16065 1.12529,0.24585 0.370464,0.0852 0.736225,0.17353 1.097017,0.26505 0.360886,0.0915 0.716711,0.18623 1.067231,0.28397 0.350452,0.0978 0.695507,0.19861 1.03492,0.3024 0.339412,0.10369 0.67311,0.21032 1.000844,0.31981 0.327694,0.10952 0.649356,0.22188 0.964747,0.33698 0.315468,0.11518 0.624591,0.23309 0.92714,0.35364 0.302534,0.12043 0.598444,0.24347 0.887506,0.36904 0.289023,0.12568 0.571129,0.25385 0.846114,0.38444 0.274975,0.13051 0.542774,0.2634 0.803198,0.39857 0.260418,0.13518 0.513403,0.27262 0.758772,0.4122 0.245428,0.13961 0.483182,0.28133 0.713086,0.42507 0.216159,0.13559 0.425289,0.27294 0.627264,0.41195 0.301268,-1.80117 0.461709,-3.63057 0.479347,-5.46564 -5e-6,-4.20251 -0.734046,-7.929611 -2.05899,-11.156201 1.553847,-1.254095 2.374258,-3.758023 2.374258,-7.473393 0,-8.220593 -4.004642,-10.532613 -11.123884,-6.422315 -1.034743,0.597409 -1.91418,1.205752 -2.648138,1.821713 -3.705576,-1.786024 -7.961498,-2.708436 -12.489981,-2.708464 -4.441586,-2.2e-5 -8.621276,0.886648 -12.276438,2.605729 -0.708914,-0.58086 -1.546794,-1.154819 -2.523946,-1.718978 -2.224763,-1.284468 -4.145453,-1.94177 -5.734725,-1.987554 z" /><path
         id="path20"
         style="fill:#ffffff;stroke:#000000;stroke-width:2.58478;stroke-linecap:round;stroke-linejoin:round;stroke-dasharray:none"
         d="m 31.876677,97.951081 c -2.787005,0.127299 -4.742029,3.088049 -4.741169,6.897369 6.2e-5,0.27606 0.03407,0.82567 0.03407,0.82567 -9.426558,2.05133 -14.892962,5.98623 -14.908197,10.26465 -1.53e-4,6.47043 13.16907,11.71578 29.414227,11.71581 16.245155,-3e-5 29.414381,-5.24538 29.414225,-11.71581 -0.002,-4.22495 -4.868644,-8.1222 -14.105359,-10.19953 0.02437,-0.29535 0.03668,-0.5929 0.03683,-0.89079 -6.4e-5,-3.80932 -2.788743,-6.897342 -5.184561,-6.897369 -2.297193,0.0076 -4.762462,2.861209 -4.892231,6.507889 -1.921722,-0.15592 -3.307739,-0.2349 -5.268929,-0.23576 -1.839792,0.008 -2.590496,0.0852 -4.394172,0.22995 -0.131589,-3.64408 -2.589311,-6.630676 -5.404739,-6.502079 z"
         sodipodi:nodetypes="ascccccccccca" /><path
         sodipodi:type="star"
         style="fill:#ffffff;fill-opacity:1;stroke:#000000;stroke-width:20;stroke-dasharray:none;stroke-opacity:1"
         id="path6"
         inkscape:flatsided="true"
         sodipodi:sides="3"
         sodipodi:cx="242.65018"
         sodipodi:cy="310.01834"
         sodipodi:r1="16.30232"
         sodipodi:r2="8.1511602"
         sodipodi:arg1="0.52359878"
         sodipodi:arg2="1.5707963"
         inkscape:rounded="0.64"
         inkscape:randomized="0"
         d="m 256.7684,318.1695 c -9.03566,15.65023 -19.20078,15.65023 -28.23645,0 -9.03566,-15.65023 -3.9531,-24.45348 14.11823,-24.45348 18.07132,0 23.15388,8.80325 14.11822,24.45348 z"
         transform="matrix(0.12923893,0,0,0.12923893,10.766504,69.217507)"
         inkscape:transform-center-x="-1.0265991e-06"
         inkscape:transform-center-y="1.7932562" /><path
         style="fill:none;fill-opacity:1;stroke:#000000;stroke-width:2.58478;stroke-linecap:round;stroke-dasharray:none;stroke-opacity:1"
         d="m 42.126351,112.10553 c 0,0 -0.185332,4.99822 -4.458012,3.22466"
         id="path7" /><path
         style="fill:none;fill-opacity:1;stroke:#000000;stroke-width:2.58478;stroke-linecap:round;stroke-dasharray:none;stroke-opacity:1"
         d="m 42.126351,112.10553 c 0,0 0.185337,4.99822 4.458018,3.22466"
         id="path8" /><path
         id="path9"
         style="stroke:#000000;stroke-width:2.58478;stroke-linecap:round;stroke-dasharray:none"
         d="m 33.266419,104.22479 a 2.0154144,2.6341875 0 0 0 -1.007156,-0.35219 2.0154144,2.6341875 0 0 0 -2.015319,2.63423 2.0154144,2.6341875 0 0 0 2.015319,2.63406 2.0154144,2.6341875 0 0 0 2.015572,-2.63406 2.0154144,2.6341875 0 0 0 -0.713843,-2.01118 1.2092489,0.83797381 0 0 1 -0.11687,-0.0808 1.2092489,0.83797381 0 0 1 -0.103492,-0.0958 1.2092489,0.83797381 0 0 1 -0.07421,-0.0942 z" /><path
         id="ellipse9"
         style="stroke:#000000;stroke-width:2.58478;stroke-linecap:round;stroke-dasharray:none"
         d="m 53.82451,106.50679 a 2.0154144,2.6341875 0 0 1 -2.015414,2.63418 2.0154144,2.6341875 0 0 1 -2.015414,-2.63418 2.0154144,2.6341875 0 0 1 2.015414,-2.63419 2.0154144,2.6341875 0 0 1 2.015414,2.63419 z" /><path
         sodipodi:type="star"
         style="fill:#ffffff;fill-opacity:1;stroke:none;stroke-width:20;stroke-linecap:round;stroke-linejoin:round;stroke-dasharray:none;stroke-opacity:1"
         id="path34"
         inkscape:flatsided="true"
         sodipodi:sides="3"
         sodipodi:cx="73.925781"
         sodipodi:cy="115.39918"
         sodipodi:r1="33.901337"
         sodipodi:r2="16.950668"
         sodipodi:arg1="1.0471976"
         sodipodi:arg2="2.0943951"
         inkscape:rounded="0.64"
         inkscape:randomized="0"
         d="m 90.876448,144.7586 c -32.545284,18.79002 -50.852005,8.22063 -50.852003,-29.35942 10e-7,-37.58006 18.306724,-48.14945 50.852006,-29.35942 32.545279,18.79003 32.545279,39.92881 -3e-6,58.71884 z"
         transform="matrix(0.12923893,0,0,0.12923893,11.66244,71.621238)"
         inkscape:transform-center-x="-3.7291474" /><path
         sodipodi:type="star"
         style="fill:#ffffff;fill-opacity:1;stroke:none;stroke-width:20;stroke-linecap:round;stroke-linejoin:round;stroke-dasharray:none;stroke-opacity:1"
         id="path35"
         inkscape:flatsided="true"
         sodipodi:sides="3"
         sodipodi:cx="73.925781"
         sodipodi:cy="115.39918"
         sodipodi:r1="33.901337"
         sodipodi:r2="16.950668"
         sodipodi:arg1="1.0471976"
         sodipodi:arg2="2.0943951"
         inkscape:rounded="0.64"
         inkscape:randomized="0"
         d="m 90.876448,144.7586 c -32.545284,18.79002 -50.852005,8.22063 -50.852003,-29.35942 10e-7,-37.58006 18.306724,-48.14945 50.852006,-29.35942 32.545279,18.79003 32.545279,39.92881 -3e-6,58.71884 z"
         transform="matrix(-0.12923893,0,0,0.12923893,72.142146,71.362761)"
         inkscape:transform-center-x="3.7291448" /><path
         inkscape:original-d="M 0,0"
         inkscape:path-effect="#path-effect16"
         d="m 36.226854,196.57127 -7.830375,37.97359 c 0,0 49.881018,-40.06388 160.521241,-40.06388 110.64023,0 160.52125,40.06388 160.52125,40.06388 l -7.9266,-37.97359 c 0,0 -47.43283,-40.06388 -152.64276,-40.06388 -105.209931,0 -152.642756,40.06388 -152.642756,40.06388 z"
         id="path17"
         style="fill:#fb2411;fill-opacity:1;stroke-width:15.7968;stroke-dasharray:none"
         transform="matrix(0.16362671,0,0,0.16362671,11.222239,61.701949)" /><path
         style="fill:none;fill-opacity:1;stroke:#fb2411;stroke-width:15.7968;stroke-linecap:round;stroke-dasharray:none;stroke-opacity:1"
         d="m 28.396479,234.54486 c 0,0 49.881018,-40.06388 160.521241,-40.06388 110.64023,0 160.52125,40.06388 160.52125,40.06388"
         id="path12"
         sodipodi:nodetypes="czc"
         transform="matrix(0.16362671,0,0,0.16362671,11.222239,61.701949)" /><path
         style="fill:none;fill-opacity:1;stroke:#fb2411;stroke-width:15.7968;stroke-linecap:round;stroke-dasharray:none;stroke-opacity:1"
         d="m 36.226854,196.57127 c 0,0 47.432825,-40.06388 152.642756,-40.06388 105.20993,0 152.64276,40.06388 152.64276,40.06388"
         id="path13"
         sodipodi:nodetypes="czc"
         transform="matrix(0.16362671,0,0,0.16362671,11.222239,61.701949)" /><path
         style="fill:none;fill-opacity:1;stroke:#fb2411;stroke-width:15.7968;stroke-linecap:round;stroke-dasharray:none;stroke-opacity:1"
         d="m 36.226854,196.57127 -7.830375,37.97359"
         id="path14"
         transform="matrix(0.16362671,0,0,0.16362671,11.222239,61.701949)" /><path
         style="fill:none;fill-opacity:1;stroke:#fb2411;stroke-width:15.7968;stroke-linecap:round;stroke-dasharray:none;stroke-opacity:1"
         d="m 341.51237,196.57127 7.9266,37.97359"
         id="path15"
         transform="matrix(0.16362671,0,0,0.16362671,11.222239,61.701949)" /><path
         id="path36"
         style="fill:#ffffff;fill-opacity:1;stroke:#000000;stroke-width:2.58478;stroke-linecap:butt;stroke-linejoin:round;stroke-dasharray:none"
         d="m 25.488334,134.93992 v -13.423 c 1.502721,-1.22656 2.343299,-2.8675 2.343875,-4.57562 -1.8e-5,-3.63235 -3.722177,-6.57694 -8.313694,-6.57695 -4.591515,1e-5 -8.313674,2.9446 -8.313692,6.57695 0.008,2.35035 1.600737,4.5187 4.178072,5.68788 v 12.31074"
         sodipodi:nodetypes="ccccccc" /><ellipse
         style="fill:#000000;fill-opacity:1;stroke:none;stroke-width:2.58478;stroke-linecap:round;stroke-linejoin:round;stroke-dasharray:none;stroke-opacity:1"
         id="path37"
         cx="14.565142"
         cy="117.42422"
         rx="1.3160454"
         ry="1.6526397" /><ellipse
         style="fill:#000000;fill-opacity:1;stroke:none;stroke-width:2.58478;stroke-linecap:round;stroke-linejoin:round;stroke-dasharray:none;stroke-opacity:1"
         id="ellipse37"
         cx="23.755432"
         cy="115.19876"
         rx="1.3160454"
         ry="1.6526397" /><ellipse
         style="fill:#000000;fill-opacity:1;stroke:none;stroke-width:2.58478;stroke-linecap:round;stroke-linejoin:round;stroke-dasharray:none;stroke-opacity:1"
         id="ellipse38"
         cx="16.943106"
         cy="114.43913"
         rx="1.3160454"
         ry="1.6526397" /><ellipse
         style="fill:#000000;fill-opacity:1;stroke:none;stroke-width:2.58478;stroke-linecap:round;stroke-linejoin:round;stroke-dasharray:none;stroke-opacity:1"
         id="ellipse39"
         cx="20.170294"
         cy="113.75816"
         rx="1.3160454"
         ry="1.6526397" /><path
         id="path39"
         style="stroke-width:2.58478;stroke-linecap:round;stroke-linejoin:round"
         d="m 19.441713,115.62734 a 3.1843547,2.0960309 84.757371 0 0 -1.686087,1.85708 2.3378804,1.9347981 84.757371 0 0 -0.08592,0.006 2.3378804,1.9347981 84.757371 0 0 -1.713081,2.50493 2.3378804,1.9347981 84.757371 0 0 2.140327,2.15133 2.3378804,1.9347981 84.757371 0 0 0.965224,-0.43126 3.1843547,2.0960309 84.757371 0 0 0.961481,0.25448 3.1843547,2.0960309 84.757371 0 0 0.938236,-0.45466 2.3378804,1.9347981 84.757371 0 0 1.068652,0.27051 2.3378804,1.9347981 84.757371 0 0 1.713081,-2.50492 2.3378804,1.9347981 84.757371 0 0 -2.140327,-2.15134 2.3378804,1.9347981 84.757371 0 0 -0.160838,0.029 3.1843547,2.0960309 84.757371 0 0 -2.000745,-1.5307 z" /><path
         id="path40"
         style="fill:#ffffff;fill-opacity:1;stroke:#000000;stroke-width:2.58478;stroke-linecap:butt;stroke-linejoin:round;stroke-dasharray:none"
         d="m 58.850604,134.93992 v -13.61606 c -1.502724,-1.22656 -2.343299,-2.8675 -2.343875,-4.57562 1.4e-5,-3.63235 3.722174,-6.57694 8.313693,-6.57695 4.591514,1e-5 8.313674,2.9446 8.313693,6.57695 -0.008,2.35035 -1.600739,4.5187 -4.178075,5.68788 v 12.5038"
         sodipodi:nodetypes="ccccccc" /><ellipse
         style="fill:#000000;fill-opacity:1;stroke:none;stroke-width:2.58478;stroke-linecap:round;stroke-linejoin:round;stroke-dasharray:none;stroke-opacity:1"
         id="ellipse40"
         cx="-69.773788"
         cy="117.23116"
         rx="1.3160454"
         ry="1.6526397"
         transform="scale(-1,1)" /><ellipse
         style="fill:#000000;fill-opacity:1;stroke:none;stroke-width:2.58478;stroke-linecap:round;stroke-linejoin:round;stroke-dasharray:none;stroke-opacity:1"
         id="ellipse41"
         cx="-60.583504"
         cy="115.0057"
         rx="1.3160454"
         ry="1.6526397"
         transform="scale(-1,1)" /><ellipse
         style="fill:#000000;fill-opacity:1;stroke:none;stroke-width:2.58478;stroke-linecap:round;stroke-linejoin:round;stroke-dasharray:none;stroke-opacity:1"
         id="ellipse42"
         cx="-67.395836"
         cy="114.24607"
         rx="1.3160454"
         ry="1.6526397"
         transform="scale(-1,1)" /><ellipse
         style="fill:#000000;fill-opacity:1;stroke:none;stroke-width:2.58478;stroke-linecap:round;stroke-linejoin:round;stroke-dasharray:none;stroke-opacity:1"
         id="ellipse43"
         cx="-64.16864"
         cy="113.56511"
         rx="1.3160454"
         ry="1.6526397"
         transform="scale(-1,1)" /><path
         id="path43"
         style="stroke-width:2.58478;stroke-linecap:round;stroke-linejoin:round"
         d="m 64.897223,115.43428 a 2.0960309,3.1843547 5.242629 0 1 1.686088,1.85708 1.9347981,2.3378804 5.242629 0 1 0.08592,0.006 1.9347981,2.3378804 5.242629 0 1 1.713081,2.50492 1.9347981,2.3378804 5.242629 0 1 -2.140324,2.15134 1.9347981,2.3378804 5.242629 0 1 -0.965225,-0.43127 2.0960309,3.1843547 5.242629 0 1 -0.961479,0.25448 2.0960309,3.1843547 5.242629 0 1 -0.938238,-0.45465 1.9347981,2.3378804 5.242629 0 1 -1.068653,0.2705 1.9347981,2.3378804 5.242629 0 1 -1.71308,-2.50492 1.9347981,2.3378804 5.242629 0 1 2.140328,-2.15134 1.9347981,2.3378804 5.242629 0 1 0.160836,0.029 2.0960309,3.1843547 5.242629 0 1 2.000746,-1.53071 z" /><text
         xml:space="preserve"
         style="font-size:19.9133px;font-family:'Noto Sans CJK JP';-inkscape-font-specification:'Noto Sans CJK JP';text-align:center;text-anchor:middle;fill:#fb2411;stroke:none;stroke-width:0.79375;stroke-linejoin:round;stroke-dasharray:none"
         x="125.43554"
         y="114.18774"
         id="text1"><tspan
           sodipodi:role="line"
           id="tspan1"
           style="font-style:normal;font-variant:normal;font-weight:900;font-stretch:normal;font-family:'Noto Sans CJK JP';-inkscape-font-specification:'Noto Sans CJK JP Heavy';stroke:#fb2411;stroke-width:0.79375;stroke-dasharray:none;stroke-opacity:1"
           x="125.43554"
           y="114.18774">おポチマン</tspan></text></g></g></svg>
