<?xml version="1.0" encoding="UTF-8" standalone="no"?>
<!-- Created with Inkscape (http://www.inkscape.org/) -->

<svg
   width="512"
   height="512"
   viewBox="0 0 512 512"
   version="1.1"
   id="svg1"
   xml:space="preserve"
   inkscape:export-filename="pochi.png"
   inkscape:export-xdpi="96"
   inkscape:export-ydpi="96"
   inkscape:version="1.3 (0e150ed, 2023-07-21)"
   sodipodi:docname="pochi.svg"
   xmlns:inkscape="http://www.inkscape.org/namespaces/inkscape"
   xmlns:sodipodi="http://sodipodi.sourceforge.net/DTD/sodipodi-0.dtd"
   xmlns="http://www.w3.org/2000/svg"
   xmlns:svg="http://www.w3.org/2000/svg"><sodipodi:namedview
     id="namedview1"
     pagecolor="#ffffff"
     bordercolor="#000000"
     borderopacity="0.25"
     inkscape:showpageshadow="2"
     inkscape:pageopacity="0.0"
     inkscape:pagecheckerboard="0"
     inkscape:deskcolor="#d1d1d1"
     inkscape:document-units="px"
     inkscape:zoom="1.603131"
     inkscape:cx="214.5801"
     inkscape:cy="301.90921"
     inkscape:window-width="2340"
     inkscape:window-height="1310"
     inkscape:window-x="30"
     inkscape:window-y="20"
     inkscape:window-maximized="1"
     inkscape:current-layer="g1"
     showguides="false"
     inkscape:export-bgcolor="#ffffffff" /><defs
     id="defs1"><inkscape:path-effect
       effect="fill_between_many"
       method="originald"
       linkedpaths="#path47,0,1|#path45,0,1|#path46,0,1|#path48,0,1"
       id="path-effect49" /><inkscape:path-effect
       effect="fill_between_many"
       method="originald"
       linkedpaths="#g15,0,1|"
       id="path-effect15" /><inkscape:path-effect
       effect="fill_between_many"
       method="originald"
       linkedpaths="#path14,0,1|#path12,0,1|#path13,0,1|#path15,0,1|"
       id="path-effect16" /></defs><g
     inkscape:label="Layer 1"
     inkscape:groupmode="layer"
     id="layer1"><g
       id="g1"
       transform="matrix(1.2660791,0,0,1.2660791,18.059718,-54.686606)"><g
         id="g48"
         style="stroke-width:15.7968;stroke-dasharray:none"
         transform="matrix(1,0,0,-1,-2.80279,597.54862)"><path
           inkscape:original-d="M 0,0"
           inkscape:path-effect="#path-effect49"
           d="m 36.226854,196.57127 -7.830375,37.97359 c 0,0 49.881018,-40.06388 160.521241,-40.06388 110.64023,0 160.52125,40.06388 160.52125,40.06388 l -7.9266,-37.97359 c 0,0 -47.43283,-40.06388 -152.64276,-40.06388 -105.209931,0 -152.642756,40.06388 -152.642756,40.06388 z"
           id="path44"
           style="fill:#fb2411;fill-opacity:1;stroke-width:15.7968;stroke-dasharray:none" /><path
           style="fill:none;fill-opacity:1;stroke:#ff0000;stroke-width:15.7968;stroke-linecap:round;stroke-dasharray:none;stroke-opacity:1"
           d="m 28.396479,234.54486 c 0,0 49.881018,-40.06388 160.521241,-40.06388 110.64023,0 160.52125,40.06388 160.52125,40.06388"
           id="path45"
           sodipodi:nodetypes="czc" /><path
           style="fill:none;fill-opacity:1;stroke:#fb2411;stroke-width:15.7968;stroke-linecap:round;stroke-dasharray:none;stroke-opacity:1"
           d="m 36.226854,196.57127 c 0,0 47.432825,-40.06388 152.642756,-40.06388 105.20993,0 152.64276,40.06388 152.64276,40.06388"
           id="path46"
           sodipodi:nodetypes="czc" /><path
           style="fill:none;fill-opacity:1;stroke:#ff0000;stroke-width:15.7968;stroke-linecap:round;stroke-dasharray:none;stroke-opacity:1"
           d="m 36.226854,196.57127 -7.830375,37.97359"
           id="path47" /><path
           style="fill:none;fill-opacity:1;stroke:#ff0000;stroke-width:15.7968;stroke-linecap:round;stroke-dasharray:none;stroke-opacity:1"
           d="m 341.51237,196.57127 7.9266,37.97359"
           id="path48" /></g><path
         id="path33"
         style="fill:#a07d66;stroke:#000000;stroke-width:15.79680132;stroke-linecap:round;fill-opacity:1;stroke-dasharray:none"
         inkscape:transform-center-x="-6.3119328"
         d="M 61.403007 97.212871 C 40.034867 96.59729 28.467294 114.0696 28.467293 148.60955 C 28.467292 170.09519 32.955855 184.95258 41.482685 192.98406 C 33.039285 213.0041 28.328495 236.2059 28.328454 262.46376 C 28.438135 273.76287 29.433706 285.02656 31.302695 296.11373 L 31.419937 296.01963 C 35.342979 293.31308 39.706726 290.71173 44.483151 288.2323 C 49.259752 285.75316 54.438736 283.40123 59.986848 281.19161 C 65.53511 278.98173 71.4407 276.9189 77.66569 275.01636 C 83.890792 273.1138 90.421983 271.37562 97.217317 269.81298 C 104.0126 268.24993 111.05757 266.86578 118.30697 265.6694 C 125.55634 264.47369 132.99449 263.46829 140.57367 262.65968 C 148.15292 261.85102 155.85698 261.24089 163.63639 260.83318 C 171.41562 260.42478 179.25367 260.21968 187.10019 260.2192 C 189.71492 260.21962 192.32933 260.24282 194.94151 260.28862 C 197.55355 260.33382 200.1628 260.40171 202.76741 260.49225 C 205.37219 260.58325 207.97167 260.69697 210.56399 260.83318 C 213.15631 260.96909 215.74088 261.1275 218.31584 261.30832 C 220.89107 261.48912 223.45609 261.69228 226.00907 261.91766 C 228.56153 262.14291 231.10135 262.39031 233.62671 262.65968 C 236.15227 262.9294 238.66279 263.22103 241.15641 263.53437 C 243.6499 263.84758 246.12594 264.18241 248.58276 264.53864 C 251.04 264.89434 253.47746 265.27136 255.89341 265.6694 C 258.30929 266.06815 260.70303 266.48786 263.07293 266.92821 C 265.44221 267.36852 267.7871 267.82937 270.1059 268.31043 C 272.42545 268.7913 274.71839 269.29227 276.98306 269.81298 C 279.24716 270.33343 281.48249 270.87349 283.68745 271.43277 C 285.893 271.9923 288.06763 272.57094 290.2098 273.16826 C 292.3516 273.7659 294.46039 274.38208 296.53469 275.01636 C 298.60901 275.65008 300.64838 276.30176 302.65132 276.97091 C 304.65403 277.64022 306.61985 278.32688 308.54736 279.03035 C 310.47533 279.73427 312.36452 280.45486 314.21353 281.19161 C 316.06248 281.9276 317.87091 282.67957 319.63751 283.44698 C 321.40387 284.21506 323.12795 284.9984 324.8085 285.79644 C 326.48902 286.59408 328.12565 287.40623 329.71723 288.2323 C 331.30878 289.05849 332.85489 289.89841 334.35446 290.75145 C 335.85438 291.60467 337.30741 292.47082 338.71246 293.34929 C 340.03349 294.17794 341.31159 295.01732 342.54596 295.8669 C 344.38715 284.85912 345.36768 273.67874 345.47547 262.46376 C 345.47543 236.78029 340.98936 214.00219 332.89202 194.28298 C 342.38831 186.61861 347.40224 171.31593 347.40224 148.60955 C 347.40224 98.369626 322.92798 84.239781 279.41892 109.35975 C 273.09512 113.0108 267.72045 116.72867 263.23491 120.4931 C 240.58837 109.57786 214.57843 103.94057 186.90273 103.9404 C 159.75812 103.94026 134.21406 109.35912 111.87564 119.86524 C 107.54313 116.31533 102.42245 112.80759 96.450617 109.35975 C 82.854038 101.50976 71.115797 97.49268 61.403007 97.212871 z " /><path
         id="path20"
         style="fill:#ffffff;stroke:#000000;stroke-width:15.79680132;stroke-linecap:round;stroke-linejoin:round;stroke-dasharray:none"
         d="m 126.22901,221.53555 c -17.0327,0.77798 -28.98077,18.87253 -28.97552,42.15309 3.8e-4,1.68713 0.20826,5.04602 0.20826,5.04602 -57.610143,12.53669 -91.0179183,36.58468 -91.1110242,62.73213 -9.374e-4,39.54384 80.4824032,71.6007 179.7642042,71.60085 99.2818,-1.5e-4 179.76515,-32.05701 179.76421,-71.60085 -0.0122,-25.82062 -29.75459,-49.63858 -86.20451,-62.33412 0.14893,-1.80504 0.22417,-3.62352 0.22523,-5.44403 -3.7e-4,-23.28057 -17.04331,-42.15293 -31.6853,-42.15309 -14.03922,0.0463 -29.10563,17.4862 -29.89872,39.77277 -11.74456,-0.95291 -20.21515,-1.43559 -32.20091,-1.44084 -11.24383,0.0504 -15.83173,0.52095 -26.85485,1.40536 -0.80436,-22.27071 -15.82466,-40.52321 -33.03107,-39.73729 z"
         sodipodi:nodetypes="ascccccccccca" /><g
         id="g19"
         transform="translate(0,-31.531899)"
         style="stroke-width:15.79680132;stroke-dasharray:none"><path
           sodipodi:type="star"
           style="fill:#ffffff;fill-opacity:1;stroke:#000000;stroke-width:19.9999999;stroke-dasharray:none;stroke-opacity:1"
           id="path6"
           inkscape:flatsided="true"
           sodipodi:sides="3"
           sodipodi:cx="242.65018"
           sodipodi:cy="310.01834"
           sodipodi:r1="16.30232"
           sodipodi:r2="8.1511602"
           sodipodi:arg1="0.52359878"
           sodipodi:arg2="1.5707963"
           inkscape:rounded="0.64"
           inkscape:randomized="0"
           d="m 256.7684,318.1695 c -9.03566,15.65023 -19.20078,15.65023 -28.23645,0 -9.03566,-15.65023 -3.9531,-24.45348 14.11823,-24.45348 18.07132,0 23.15388,8.80325 14.11822,24.45348 z"
           transform="matrix(0.78984007,0,0,0.78984007,-2.7852158,77.463017)"
           inkscape:transform-center-x="-1.0265991e-06"
           inkscape:transform-center-y="1.7932562" /><path
           style="fill:none;fill-opacity:1;stroke:#000000;stroke-width:15.79680132;stroke-linecap:round;stroke-dasharray:none;stroke-opacity:1"
           d="m 188.86962,339.57193 c 0,0 -1.13268,30.54653 -27.24503,19.70744"
           id="path7" /><path
           style="fill:none;fill-opacity:1;stroke:#000000;stroke-width:15.79680132;stroke-linecap:round;stroke-dasharray:none;stroke-opacity:1"
           d="m 188.86962,339.57193 c 0,0 1.13268,30.54653 27.24503,19.70744"
           id="path8" /></g><path
         id="path9"
         style="stroke:#000000;stroke-width:15.79680132;stroke-linecap:round;stroke-dasharray:none"
         d="m 134.72238,259.87713 a 12.317148,16.098763 0 0 0 -6.1552,-2.15238 12.317148,16.098763 0 0 0 -12.31657,16.09901 12.317148,16.098763 0 0 0 12.31657,16.09801 12.317148,16.098763 0 0 0 12.31811,-16.09801 12.317148,16.098763 0 0 0 -4.36263,-12.29126 7.3902903,5.1212534 0 0 1 -0.71425,-0.49399 7.3902903,5.1212534 0 0 1 -0.63249,-0.58573 7.3902903,5.1212534 0 0 1 -0.45354,-0.57565 z" /><path
         id="ellipse9"
         style="stroke:#000000;stroke-width:15.79680132;stroke-linecap:round;stroke-dasharray:none"
         d="m 260.36259,273.8235 a 12.317148,16.098763 0 0 1 -12.31715,16.09876 12.317148,16.098763 0 0 1 -12.31715,-16.09876 12.317148,16.098763 0 0 1 12.31715,-16.09876 12.317148,16.098763 0 0 1 12.31715,16.09876 z" /><path
         inkscape:original-d="M 0,0"
         inkscape:path-effect="#path-effect15"
         d="M 0,0"
         id="path16"
         style="stroke-width:15.79680132;stroke-dasharray:none" /><path
         sodipodi:type="star"
         style="fill:#ffffff;fill-opacity:1;stroke:none;stroke-width:19.9999999;stroke-linecap:round;stroke-linejoin:round;stroke-dasharray:none;stroke-opacity:1"
         id="path34"
         inkscape:flatsided="true"
         sodipodi:sides="3"
         sodipodi:cx="73.925781"
         sodipodi:cy="115.39918"
         sodipodi:r1="33.901337"
         sodipodi:r2="16.950668"
         sodipodi:arg1="1.0471976"
         sodipodi:arg2="2.0943951"
         inkscape:rounded="0.64"
         inkscape:randomized="0"
         d="m 90.876448,144.7586 c -32.545284,18.79002 -50.852005,8.22063 -50.852003,-29.35942 10e-7,-37.58006 18.306724,-48.14945 50.852006,-29.35942 32.545279,18.79003 32.545279,39.92881 -3e-6,58.71884 z"
         transform="matrix(0.78984007,0,0,0.78984007,2.6902771,60.621456)"
         inkscape:transform-center-x="-3.7291474" /><path
         sodipodi:type="star"
         style="fill:#ffffff;fill-opacity:1;stroke:none;stroke-width:19.9999999;stroke-linecap:round;stroke-linejoin:round;stroke-dasharray:none;stroke-opacity:1"
         id="path35"
         inkscape:flatsided="true"
         sodipodi:sides="3"
         sodipodi:cx="73.925781"
         sodipodi:cy="115.39918"
         sodipodi:r1="33.901337"
         sodipodi:r2="16.950668"
         sodipodi:arg1="1.0471976"
         sodipodi:arg2="2.0943951"
         inkscape:rounded="0.64"
         inkscape:randomized="0"
         d="m 90.876448,144.7586 c -32.545284,18.79002 -50.852005,8.22063 -50.852003,-29.35942 10e-7,-37.58006 18.306724,-48.14945 50.852006,-29.35942 32.545279,18.79003 32.545279,39.92881 -3e-6,58.71884 z"
         transform="matrix(-0.78984007,0,0,0.78984007,372.31029,59.041776)"
         inkscape:transform-center-x="3.7291448" /><g
         id="g15"
         style="stroke-width:15.79680132;stroke-dasharray:none"><path
           inkscape:original-d="M 0,0"
           inkscape:path-effect="#path-effect16"
           d="m 36.226854,196.57127 -7.830375,37.97359 c 0,0 49.881018,-40.06388 160.521241,-40.06388 110.64023,0 160.52125,40.06388 160.52125,40.06388 l -7.9266,-37.97359 c 0,0 -47.43283,-40.06388 -152.64276,-40.06388 -105.209931,0 -152.642756,40.06388 -152.642756,40.06388 z"
           id="path17"
           style="fill:#fb2411;fill-opacity:1;stroke-width:15.79680132;stroke-dasharray:none" /><path
           style="fill:none;fill-opacity:1;stroke:#fb2411;stroke-width:15.79680132;stroke-linecap:round;stroke-dasharray:none;stroke-opacity:1"
           d="m 28.396479,234.54486 c 0,0 49.881018,-40.06388 160.521241,-40.06388 110.64023,0 160.52125,40.06388 160.52125,40.06388"
           id="path12"
           sodipodi:nodetypes="czc" /><path
           style="fill:none;fill-opacity:1;stroke:#fb2411;stroke-width:15.79680132;stroke-linecap:round;stroke-dasharray:none;stroke-opacity:1"
           d="m 36.226854,196.57127 c 0,0 47.432825,-40.06388 152.642756,-40.06388 105.20993,0 152.64276,40.06388 152.64276,40.06388"
           id="path13"
           sodipodi:nodetypes="czc" /><path
           style="fill:none;fill-opacity:1;stroke:#fb2411;stroke-width:15.79680132;stroke-linecap:round;stroke-dasharray:none;stroke-opacity:1"
           d="m 36.226854,196.57127 -7.830375,37.97359"
           id="path14" /><path
           style="fill:none;fill-opacity:1;stroke:#fb2411;stroke-width:15.79680132;stroke-linecap:round;stroke-dasharray:none;stroke-opacity:1"
           d="m 341.51237,196.57127 7.9266,37.97359"
           id="path15" /></g><g
         id="g40"
         transform="translate(0,7.8984008)"><path
           id="path36"
           style="fill:#ffffff;fill-opacity:1;stroke:#000000;stroke-width:15.7968;stroke-linecap:butt;stroke-linejoin:round;stroke-dasharray:none"
           d="m 87.186834,439.69339 0,-82.03432 c 9.183837,-7.49604 14.321006,-17.52461 14.324526,-27.96375 -1.1e-4,-22.19897 -22.747981,-40.19476 -50.808902,-40.19481 -28.06092,5e-5 -50.80878969,17.99584 -50.8088986,40.19481 0.04862724,14.36411 9.7828582,27.61595 25.5341686,34.76132 l 0,75.23675"
           sodipodi:nodetypes="ccccccc" /><ellipse
           style="fill:#000000;fill-opacity:1;stroke:none;stroke-width:15.7968;stroke-linecap:round;stroke-linejoin:round;stroke-dasharray:none;stroke-opacity:1"
           id="path37"
           cx="20.430054"
           cy="332.64667"
           rx="8.0429745"
           ry="10.100061" /><ellipse
           style="fill:#000000;fill-opacity:1;stroke:none;stroke-width:15.7968;stroke-linecap:round;stroke-linejoin:round;stroke-dasharray:none;stroke-opacity:1"
           id="ellipse37"
           cx="76.596252"
           cy="319.04587"
           rx="8.0429745"
           ry="10.100061" /><ellipse
           style="fill:#000000;fill-opacity:1;stroke:none;stroke-width:15.7968;stroke-linecap:round;stroke-linejoin:round;stroke-dasharray:none;stroke-opacity:1"
           id="ellipse38"
           cx="34.962914"
           cy="314.40341"
           rx="8.0429745"
           ry="10.100061" /><ellipse
           style="fill:#000000;fill-opacity:1;stroke:none;stroke-width:15.7968;stroke-linecap:round;stroke-linejoin:round;stroke-dasharray:none;stroke-opacity:1"
           id="ellipse39"
           cx="54.685783"
           cy="310.2417"
           rx="8.0429745"
           ry="10.100061" /><path
           id="path39"
           style="stroke-width:15.7968;stroke-linecap:round;stroke-linejoin:round"
           d="m 50.233086,321.66509 a 19.461094,12.809834 84.757371 0 0 -10.304478,11.34951 14.28789,11.824464 84.757371 0 0 -0.525114,0.0342 14.28789,11.824464 84.757371 0 0 -10.469444,15.30876 14.28789,11.824464 84.757371 0 0 13.080549,13.14786 14.28789,11.824464 84.757371 0 0 5.898932,-2.6357 19.461094,12.809834 84.757371 0 0 5.876063,1.55526 19.461094,12.809834 84.757371 0 0 5.734008,-2.77858 14.28789,11.824464 84.757371 0 0 6.531036,1.65317 14.28789,11.824464 84.757371 0 0 10.469444,-15.30875 14.28789,11.824464 84.757371 0 0 -13.080548,-13.14788 14.28789,11.824464 84.757371 0 0 -0.982956,0.17696 19.461094,12.809834 84.757371 0 0 -12.227492,-9.35484 z" /></g><g
         id="g43"
         transform="matrix(-1,0,0,1,378.26622,6.7185227)"><path
           id="path40"
           style="fill:#ffffff;fill-opacity:1;stroke:#000000;stroke-width:15.7968;stroke-linecap:butt;stroke-linejoin:round;stroke-dasharray:none"
           d="m 87.186834,440.87326 0,-83.21419 c 9.183837,-7.49604 14.321006,-17.52461 14.324526,-27.96375 -1.1e-4,-22.19897 -22.747981,-40.19476 -50.808902,-40.19481 -28.06092,5e-5 -50.80878969,17.99584 -50.8088986,40.19481 0.04862724,14.36411 9.7828582,27.61595 25.5341686,34.76132 l 0,76.41662"
           sodipodi:nodetypes="ccccccc" /><ellipse
           style="fill:#000000;fill-opacity:1;stroke:none;stroke-width:15.7968;stroke-linecap:round;stroke-linejoin:round;stroke-dasharray:none;stroke-opacity:1"
           id="ellipse40"
           cx="20.430054"
           cy="332.64667"
           rx="8.0429745"
           ry="10.100061" /><ellipse
           style="fill:#000000;fill-opacity:1;stroke:none;stroke-width:15.7968;stroke-linecap:round;stroke-linejoin:round;stroke-dasharray:none;stroke-opacity:1"
           id="ellipse41"
           cx="76.596252"
           cy="319.04587"
           rx="8.0429745"
           ry="10.100061" /><ellipse
           style="fill:#000000;fill-opacity:1;stroke:none;stroke-width:15.7968;stroke-linecap:round;stroke-linejoin:round;stroke-dasharray:none;stroke-opacity:1"
           id="ellipse42"
           cx="34.962914"
           cy="314.40341"
           rx="8.0429745"
           ry="10.100061" /><ellipse
           style="fill:#000000;fill-opacity:1;stroke:none;stroke-width:15.7968;stroke-linecap:round;stroke-linejoin:round;stroke-dasharray:none;stroke-opacity:1"
           id="ellipse43"
           cx="54.685783"
           cy="310.2417"
           rx="8.0429745"
           ry="10.100061" /><path
           id="path43"
           style="stroke-width:15.7968;stroke-linecap:round;stroke-linejoin:round"
           d="m 50.233086,321.66509 a 19.461094,12.809834 84.757371 0 0 -10.304478,11.34951 14.28789,11.824464 84.757371 0 0 -0.525114,0.0342 14.28789,11.824464 84.757371 0 0 -10.469444,15.30876 14.28789,11.824464 84.757371 0 0 13.080549,13.14786 14.28789,11.824464 84.757371 0 0 5.898932,-2.6357 19.461094,12.809834 84.757371 0 0 5.876063,1.55526 19.461094,12.809834 84.757371 0 0 5.734008,-2.77858 14.28789,11.824464 84.757371 0 0 6.531036,1.65317 14.28789,11.824464 84.757371 0 0 10.469444,-15.30875 14.28789,11.824464 84.757371 0 0 -13.080548,-13.14788 14.28789,11.824464 84.757371 0 0 -0.982956,0.17696 19.461094,12.809834 84.757371 0 0 -12.227492,-9.35484 z" /></g></g></g></svg>
